<svg xmlns="http://www.w3.org/2000/svg" viewBox="0 0 120 120" class="h-full w-full" aria-hidden="true"><path d="M61 18a1 1 0 1 0-2 0a2 2 0 1 0 4 0a3.2 3.2 0 1 0-6.4 0a4.5 4.5 0 1 0 9 0" fill="none" stroke="#5B4BE8" stroke-width="2.25" stroke-linecap="round"/><ellipse cx="60" cy="68" rx="46" ry="44" fill="#5B4BE8"/><g fill="#FFFFFF" opacity="0.15"><circle cx="28" cy="81" r="2"/><circle cx="36" cy="97.5" r="1.5"/><circle cx="64.5" cy="101.5" r="1.75"/><circle cx="86" cy="90" r="1.4"/><circle cx="92" cy="74.5" r="1.25"/></g><ellipse cx="60" cy="73.5" rx="13" ry="9.5" fill="#fff"/><ellipse cx="60" cy="64.5" rx="15.5" ry="9.75" fill="#5B4BE8"/><g><ellipse cx="46.5" cy="59" rx="10.25" ry="11" fill="#fff"/><ellipse cx="73.5" cy="59" rx="10.25" ry="11" fill="#fff"/><circle cx="46.5" cy="59.5" r="6.4125000000000005" fill="#14131F"/><circle cx="73.5" cy="59.5" r="6.4125000000000005" fill="#14131F"/><circle cx="48.25" cy="57.75" r="1.5" fill="#fff" opacity="0.9"/><circle cx="75.25" cy="57.75" r="1.5" fill="#fff" opacity="0.9"/></g><g fill="#14131F"><rect x="41" y="42.25" width="11" height="2.5" rx="1.25"/><rect x="68" y="42.25" width="11" height="2.5" rx="1.25"/></g></svg>
